<svg version="1.1" id="Layer_1" xmlns="http://www.w3.org/2000/svg" xmlns:xlink="http://www.w3.org/1999/xlink" x="0px" y="0px"
	 width="100%" viewBox="0 0 512 512" enable-background="new 0 0 512 512" xml:space="preserve">
<path fill="#FFC91F" opacity="1.000000" stroke="none" 
	d="
M354.000000,513.000000 
	C236.028671,513.000000 118.557327,513.000000 1.042998,513.000000 
	C1.042998,342.403656 1.042998,171.807281 1.042998,1.105453 
	C171.554672,1.105453 342.109436,1.105453 512.832092,1.105453 
	C512.832092,171.666534 512.832092,342.333252 512.832092,513.000000 
	C460.140533,513.000000 407.320282,513.000000 354.000000,513.000000 
M181.574554,316.632599 
	C193.871674,316.228699 205.221741,312.886993 215.134521,305.438782 
	C218.306198,303.055664 220.610764,303.113007 223.725464,305.861816 
	C236.340622,316.995056 249.109573,327.961029 262.037262,338.730042 
	C267.839111,343.563080 271.429016,348.358002 270.184570,356.859314 
	C268.860443,365.904663 274.078308,373.038239 282.140411,377.029755 
	C290.291687,381.065399 298.698578,380.544617 306.222412,374.999908 
	C315.328156,368.289429 318.092896,356.367004 313.137604,346.427307 
	C308.138641,336.400024 296.642029,331.410065 285.679810,334.803955 
	C282.558136,335.770386 280.356628,335.781769 277.652435,333.420532 
	C262.718750,320.380707 247.592194,307.560730 232.452652,294.758911 
	C230.106461,292.774994 229.039810,290.853943 230.544601,287.909668 
	C238.171249,272.987274 239.685287,257.539978 234.088150,241.426147 
	C235.335205,240.837692 236.363937,240.318970 237.418488,239.859512 
	C263.351807,228.560577 289.348022,217.402695 315.175934,205.867859 
	C320.785034,203.362808 325.665833,201.453552 330.880707,206.306183 
	C332.005707,207.353043 333.892609,207.654266 335.481476,208.117493 
	C345.072479,210.913742 354.502716,207.661575 360.191925,199.653137 
	C365.873840,191.654861 366.097839,181.274689 360.758636,173.385956 
	C355.161194,165.115646 345.345123,161.269257 335.856506,164.027634 
	C326.136353,166.853287 320.475494,173.442001 318.841522,183.500137 
	C318.389130,186.284714 318.799133,189.262070 315.074493,190.844803 
	C287.049469,202.753769 259.100586,214.842758 231.178467,226.991699 
	C228.576920,228.123611 226.962845,227.628601 225.070877,225.748795 
	C221.291382,221.993622 217.499374,218.192703 213.305603,214.934464 
	C210.739914,212.941116 210.796295,211.300018 211.817657,208.627640 
	C218.232269,191.844131 224.785385,175.102753 230.653961,158.126648 
	C232.986710,151.378693 235.908493,147.036285 243.437454,144.980988 
	C253.318802,142.283493 258.733734,132.413116 258.027008,121.945381 
	C257.393646,112.564369 250.246109,104.405266 240.802048,102.282639 
	C231.165451,100.116722 221.202103,104.205986 216.069733,112.433548 
	C211.194336,120.249161 211.782135,131.058929 218.217117,138.525803 
	C220.960297,141.708862 221.150620,144.251419 219.652634,147.876663 
	C216.858917,154.637604 214.521255,161.585999 211.945084,168.438065 
	C207.612595,179.961624 203.293381,191.490784 198.838654,202.967148 
	C198.066177,204.957199 197.582916,207.626251 194.071243,206.688828 
	C183.921417,203.979340 173.865021,205.410934 164.015564,208.205978 
	C160.323334,209.253723 158.364258,208.641968 156.380936,205.280350 
	C148.005386,191.084183 139.429443,177.003922 130.741653,162.996124 
	C128.875305,159.986893 128.814667,157.966553 131.244690,155.130142 
	C141.164703,143.551163 141.844650,127.177856 132.801865,114.939705 
	C122.315773,100.748230 110.068329,99.039452 94.091637,103.447952 
	C80.372452,107.233528 71.380676,123.641212 73.263794,137.491074 
	C75.467278,153.697083 87.220497,167.048721 102.606316,166.399796 
	C115.239250,165.866959 120.829857,171.586319 125.278313,181.284470 
	C125.760895,182.336533 126.474007,183.283020 127.082092,184.277328 
	C133.754150,195.187057 140.426559,206.096542 146.986176,216.821808 
	C146.566330,217.507736 146.436279,217.826370 146.217377,218.062729 
	C122.966782,243.170578 120.358757,264.574341 137.206436,293.908875 
	C138.719879,296.544037 137.671082,297.706421 136.036484,299.337769 
	C118.934814,316.405609 101.828789,333.469727 84.853104,350.662354 
	C82.700882,352.842072 81.086975,352.731384 78.370125,351.814301 
	C73.064514,350.023285 67.540939,348.018097 62.043713,347.812836 
	C44.231266,347.147766 30.898848,355.191467 22.570654,370.871796 
	C15.022120,385.084137 17.512825,403.879547 28.211132,416.285583 
	C39.890221,429.829010 55.052429,433.755096 71.662277,429.244781 
	C98.116920,422.061127 109.904915,389.505066 95.123192,366.563141 
	C94.328125,365.329163 93.585167,364.061615 93.194298,363.423828 
	C111.362236,344.928040 129.182999,326.713074 147.175751,308.669586 
	C148.136642,307.705963 150.973694,307.424744 152.213959,308.118713 
	C161.106339,313.094269 170.608307,315.778259 181.574554,316.632599 
M48.500099,316.002350 
	C61.106663,315.351013 73.848846,315.623505 86.283073,313.798157 
	C99.719383,311.825714 108.783592,300.746399 109.981812,287.722260 
	C111.232712,274.125702 105.305771,264.775574 91.753311,258.947083 
	C90.863327,258.564331 90.002304,258.114227 89.008919,257.638519 
	C89.526970,257.186432 89.862801,256.809509 90.272377,256.548126 
	C102.718445,248.604813 107.023949,239.183487 104.033592,226.403290 
	C101.380180,215.063171 91.681313,206.655457 78.180840,205.891846 
	C62.081036,204.981201 45.910694,205.006546 29.775858,205.156921 
	C21.639544,205.232758 18.036556,209.583115 18.010908,218.162628 
	C17.926783,246.303528 17.931189,274.444946 18.005707,302.585907 
	C18.030527,311.958282 22.032488,315.824066 31.514984,315.984924 
	C36.841957,316.075317 42.171711,316.001953 48.500099,316.002350 
M414.310974,228.496521 
	C414.310974,233.683304 414.310974,238.870087 414.310974,245.024551 
	C412.036865,243.031937 410.824066,241.923035 409.563385,240.871552 
	C390.677521,225.119858 362.672241,233.179794 355.463593,256.636414 
	C351.484192,269.585083 351.859467,282.621979 356.882233,295.281616 
	C366.127197,318.583008 392.533264,324.260681 410.590393,306.950317 
	C411.592224,305.989960 412.643005,305.080688 413.982147,303.865173 
	C414.312134,305.928162 414.498688,307.408417 414.791382,308.867340 
	C415.791321,313.851837 419.401398,316.993591 424.077759,316.998047 
	C428.836151,317.002563 432.366486,314.006104 433.298126,308.883606 
	C433.711823,306.608978 433.832275,304.254333 433.835114,301.935699 
	C433.869659,273.630585 433.863770,245.325455 433.844299,217.020325 
	C433.842926,215.027634 433.808777,213.012039 433.519897,211.046783 
	C432.644257,205.090256 429.381256,202.015869 424.128174,202.000717 
	C418.924133,201.985718 415.336853,205.139847 414.787292,211.045105 
	C414.279877,216.497467 414.443146,222.012238 414.310974,228.496521 
M316.066681,280.501770 
	C316.081085,288.665710 315.903473,296.835846 316.166229,304.991791 
	C316.408386,312.509918 320.272888,316.842499 326.226471,317.000244 
	C332.405670,317.163971 336.472107,312.906219 336.530487,304.891876 
	C336.649292,288.571411 336.576691,272.236908 336.004120,255.928513 
	C335.634277,245.394867 327.922821,236.620712 317.677277,234.150833 
	C305.631958,231.247101 294.908356,233.712814 286.068726,242.810165 
	C285.125031,243.781357 284.080170,244.654251 282.674347,245.948212 
	C282.444916,244.568375 282.314026,243.942017 282.239594,243.309006 
	C281.442719,236.532486 277.936462,232.868729 272.364441,233.002853 
	C266.935272,233.133530 263.698944,236.737808 263.092560,243.366028 
	C263.001678,244.359314 262.996918,245.362900 262.996643,246.361710 
	C262.991241,265.189514 262.962646,284.017456 263.031189,302.845001 
	C263.039551,305.147858 263.310242,307.522461 263.923157,309.735382 
	C265.236786,314.478363 268.627625,316.896210 273.492310,316.968872 
	C278.269989,317.040253 282.088959,313.891968 283.068207,309.081055 
	C283.529053,306.817108 283.629456,304.454956 283.666351,302.133698 
	C283.849030,290.640961 283.775360,279.141144 284.147552,267.655365 
	C284.437256,258.715759 289.291626,252.256653 296.866943,249.778061 
	C306.203613,246.723190 313.419922,250.471939 315.055298,260.110687 
	C316.130768,266.449463 315.779205,273.030396 316.066681,280.501770 
M472.119659,228.360550 
	C472.030853,223.367645 472.222443,218.349548 471.776794,213.388718 
	C471.302490,208.109390 466.612762,204.112808 461.667877,204.130661 
	C456.538513,204.149155 452.454773,207.956085 451.800507,213.522690 
	C451.509827,215.996033 451.433044,218.505997 451.428680,220.999634 
	C451.397064,239.103622 451.345428,257.208008 451.435211,275.311615 
	C451.475647,283.463684 451.508545,291.638062 452.121002,299.758881 
	C452.778564,308.478027 457.122345,314.416626 464.958008,315.374451 
	C472.391113,316.283142 480.089966,315.348694 487.636688,314.766998 
	C489.553406,314.619263 492.124420,313.156219 492.993744,311.542664 
	C494.268066,309.177368 495.218597,305.895386 494.598145,303.434998 
	C493.780823,300.193878 490.600983,298.734283 486.988495,299.360840 
	C484.858917,299.730225 482.750000,300.265015 480.607056,300.501862 
	C475.532410,301.062775 472.573120,299.184509 472.468628,294.126801 
	C472.160217,279.202545 472.358459,264.267822 472.358459,249.202240 
	C475.611450,248.987732 478.598846,248.981079 481.524292,248.552185 
	C485.669128,247.944489 488.853119,246.070496 488.712067,241.213120 
	C488.594757,237.173569 485.508392,234.477753 480.529266,234.128082 
	C477.913483,233.944366 475.274139,234.095627 472.366974,234.095627 
	C472.270172,232.229691 472.194824,230.777130 472.119659,228.360550 
z"/>
<path fill="#FFFEFB" opacity="1.000000" stroke="none" 
	d="
M181.135712,316.625793 
	C170.608307,315.778259 161.106339,313.094269 152.213959,308.118713 
	C150.973694,307.424744 148.136642,307.705963 147.175751,308.669586 
	C129.182999,326.713074 111.362236,344.928040 93.194298,363.423828 
	C93.585167,364.061615 94.328125,365.329163 95.123192,366.563141 
	C109.904915,389.505066 98.116920,422.061127 71.662277,429.244781 
	C55.052429,433.755096 39.890221,429.829010 28.211132,416.285583 
	C17.512825,403.879547 15.022120,385.084137 22.570654,370.871796 
	C30.898848,355.191467 44.231266,347.147766 62.043713,347.812836 
	C67.540939,348.018097 73.064514,350.023285 78.370125,351.814301 
	C81.086975,352.731384 82.700882,352.842072 84.853104,350.662354 
	C101.828789,333.469727 118.934814,316.405609 136.036484,299.337769 
	C137.671082,297.706421 138.719879,296.544037 137.206436,293.908875 
	C120.358757,264.574341 122.966782,243.170578 146.217377,218.062729 
	C146.436279,217.826370 146.566330,217.507736 146.986176,216.821808 
	C140.426559,206.096542 133.754150,195.187057 127.082092,184.277328 
	C126.474007,183.283020 125.760895,182.336533 125.278313,181.284470 
	C120.829857,171.586319 115.239250,165.866959 102.606316,166.399796 
	C87.220497,167.048721 75.467278,153.697083 73.263794,137.491074 
	C71.380676,123.641212 80.372452,107.233528 94.091637,103.447952 
	C110.068329,99.039452 122.315773,100.748230 132.801865,114.939705 
	C141.844650,127.177856 141.164703,143.551163 131.244690,155.130142 
	C128.814667,157.966553 128.875305,159.986893 130.741653,162.996124 
	C139.429443,177.003922 148.005386,191.084183 156.380936,205.280350 
	C158.364258,208.641968 160.323334,209.253723 164.015564,208.205978 
	C173.865021,205.410934 183.921417,203.979340 194.071243,206.688828 
	C197.582916,207.626251 198.066177,204.957199 198.838654,202.967148 
	C203.293381,191.490784 207.612595,179.961624 211.945084,168.438065 
	C214.521255,161.585999 216.858917,154.637604 219.652634,147.876663 
	C221.150620,144.251419 220.960297,141.708862 218.217117,138.525803 
	C211.782135,131.058929 211.194336,120.249161 216.069733,112.433548 
	C221.202103,104.205986 231.165451,100.116722 240.802048,102.282639 
	C250.246109,104.405266 257.393646,112.564369 258.027008,121.945381 
	C258.733734,132.413116 253.318802,142.283493 243.437454,144.980988 
	C235.908493,147.036285 232.986710,151.378693 230.653961,158.126648 
	C224.785385,175.102753 218.232269,191.844131 211.817657,208.627640 
	C210.796295,211.300018 210.739914,212.941116 213.305603,214.934464 
	C217.499374,218.192703 221.291382,221.993622 225.070877,225.748795 
	C226.962845,227.628601 228.576920,228.123611 231.178467,226.991699 
	C259.100586,214.842758 287.049469,202.753769 315.074493,190.844803 
	C318.799133,189.262070 318.389130,186.284714 318.841522,183.500137 
	C320.475494,173.442001 326.136353,166.853287 335.856506,164.027634 
	C345.345123,161.269257 355.161194,165.115646 360.758636,173.385956 
	C366.097839,181.274689 365.873840,191.654861 360.191925,199.653137 
	C354.502716,207.661575 345.072479,210.913742 335.481476,208.117493 
	C333.892609,207.654266 332.005707,207.353043 330.880707,206.306183 
	C325.665833,201.453552 320.785034,203.362808 315.175934,205.867859 
	C289.348022,217.402695 263.351807,228.560577 237.418488,239.859512 
	C236.363937,240.318970 235.335205,240.837692 234.088150,241.426147 
	C239.685287,257.539978 238.171249,272.987274 230.544601,287.909668 
	C229.039810,290.853943 230.106461,292.774994 232.452652,294.758911 
	C247.592194,307.560730 262.718750,320.380707 277.652435,333.420532 
	C280.356628,335.781769 282.558136,335.770386 285.679810,334.803955 
	C296.642029,331.410065 308.138641,336.400024 313.137604,346.427307 
	C318.092896,356.367004 315.328156,368.289429 306.222412,374.999908 
	C298.698578,380.544617 290.291687,381.065399 282.140411,377.029755 
	C274.078308,373.038239 268.860443,365.904663 270.184570,356.859314 
	C271.429016,348.358002 267.839111,343.563080 262.037262,338.730042 
	C249.109573,327.961029 236.340622,316.995056 223.725464,305.861816 
	C220.610764,303.113007 218.306198,303.055664 215.134521,305.438782 
	C205.221741,312.886993 193.871674,316.228699 181.135712,316.625793 
M187.654282,219.751389 
	C165.396713,216.614685 144.429184,231.929138 141.092545,253.759583 
	C137.516617,277.155670 152.891113,298.626709 175.567291,301.904816 
	C198.071823,305.158112 219.428955,289.902618 222.889893,268.102081 
	C226.556442,245.006424 211.291275,223.595016 187.654282,219.751389 
M59.506290,416.957458 
	C61.974033,416.614899 64.538185,416.589996 66.892967,415.875275 
	C77.582291,412.631012 85.031876,405.974457 87.018608,394.642242 
	C89.255890,381.880920 84.735458,371.394135 74.326653,365.559998 
	C64.273933,359.925446 53.926346,359.665497 44.142151,366.418182 
	C34.530739,373.051575 30.249399,385.155182 33.154598,396.411316 
	C36.093891,407.799561 45.854664,415.668091 59.506290,416.957458 
M106.416138,115.075874 
	C104.287621,115.420029 102.079491,115.511574 100.044655,116.152939 
	C92.082611,118.662544 86.798347,126.374779 87.004860,134.887558 
	C87.203491,143.075073 92.586937,150.055130 100.378456,152.227402 
	C108.818985,154.580597 117.318916,151.562317 121.873360,144.594666 
	C130.082474,132.035904 123.103020,117.948814 106.416138,115.075874 
M335.949768,179.429901 
	C332.264282,184.086990 331.773651,188.029968 334.633667,191.562500 
	C337.334900,194.898895 340.813202,195.985474 344.870392,194.341461 
	C349.940186,192.287094 351.957123,187.023453 349.745911,181.936783 
	C347.764465,177.378708 342.021393,176.062042 335.949768,179.429901 
M292.471313,347.886169 
	C288.296906,347.868317 284.899597,349.854492 284.349670,353.793457 
	C283.945831,356.685944 284.947266,360.401337 286.654907,362.802307 
	C288.759064,365.760864 292.571228,366.552032 296.138519,364.750366 
	C299.648743,362.977448 301.954895,360.121399 301.461304,355.958405 
	C300.900665,351.229950 297.983276,348.592407 292.471313,347.886169 
M243.636505,121.281273 
	C241.586288,117.468697 238.643311,114.874107 234.088638,115.870491 
	C230.313965,116.696266 227.548904,119.056526 227.045395,123.219170 
	C226.462082,128.041626 230.603302,132.890305 235.345108,133.059937 
	C240.452759,133.242661 244.151123,128.473160 243.636505,121.281273 
z"/>
<path fill="#010100" opacity="1.000000" stroke="none" 
	d="
M48.000153,316.002350 
	C42.171711,316.001953 36.841957,316.075317 31.514984,315.984924 
	C22.032488,315.824066 18.030527,311.958282 18.005707,302.585907 
	C17.931189,274.444946 17.926783,246.303528 18.010908,218.162628 
	C18.036556,209.583115 21.639544,205.232758 29.775858,205.156921 
	C45.910694,205.006546 62.081036,204.981201 78.180840,205.891846 
	C91.681313,206.655457 101.380180,215.063171 104.033592,226.403290 
	C107.023949,239.183487 102.718445,248.604813 90.272377,256.548126 
	C89.862801,256.809509 89.526970,257.186432 89.008919,257.638519 
	C90.002304,258.114227 90.863327,258.564331 91.753311,258.947083 
	C105.305771,264.775574 111.232712,274.125702 109.981812,287.722260 
	C108.783592,300.746399 99.719383,311.825714 86.283073,313.798157 
	C73.848846,315.623505 61.106663,315.351013 48.000153,316.002350 
M41.004704,267.246246 
	C41.004704,277.753265 41.004704,288.260284 41.004704,298.135284 
	C51.934048,298.135284 62.957111,298.938782 73.801147,297.890442 
	C83.099274,296.991608 87.338654,291.190948 87.384995,282.904175 
	C87.431854,274.525909 83.341721,269.156311 73.764565,268.087891 
	C63.240944,266.913788 52.540646,267.323456 41.004704,267.246246 
M60.436878,251.004471 
	C64.560829,250.617142 68.774857,250.636627 72.787842,249.748123 
	C78.963036,248.380875 82.873306,242.689758 82.927246,236.007019 
	C82.983002,229.098999 80.146027,224.460800 73.222466,223.584549 
	C62.465870,222.223160 51.553688,222.091125 40.646088,221.434280 
	C40.646088,232.041656 40.646088,241.413864 40.646088,251.006241 
	C47.161160,251.006241 53.307991,251.006241 60.436878,251.004471 
z"/>
<path fill="#040300" opacity="1.000000" stroke="none" 
	d="
M414.310974,227.998016 
	C414.443146,222.012238 414.279877,216.497467 414.787292,211.045105 
	C415.336853,205.139847 418.924133,201.985718 424.128174,202.000717 
	C429.381256,202.015869 432.644257,205.090256 433.519897,211.046783 
	C433.808777,213.012039 433.842926,215.027634 433.844299,217.020325 
	C433.863770,245.325455 433.869659,273.630585 433.835114,301.935699 
	C433.832275,304.254333 433.711823,306.608978 433.298126,308.883606 
	C432.366486,314.006104 428.836151,317.002563 424.077759,316.998047 
	C419.401398,316.993591 415.791321,313.851837 414.791382,308.867340 
	C414.498688,307.408417 414.312134,305.928162 413.982147,303.865173 
	C412.643005,305.080688 411.592224,305.989960 410.590393,306.950317 
	C392.533264,324.260681 366.127197,318.583008 356.882233,295.281616 
	C351.859467,282.621979 351.484192,269.585083 355.463593,256.636414 
	C362.672241,233.179794 390.677521,225.119858 409.563385,240.871552 
	C410.824066,241.923035 412.036865,243.031937 414.310974,245.024551 
	C414.310974,238.870087 414.310974,233.683304 414.310974,227.998016 
M394.263367,248.031830 
	C385.223175,247.644470 379.455505,252.353073 376.221405,260.265717 
	C372.704834,268.869507 372.693695,277.848236 375.328186,286.663361 
	C378.121155,296.008667 385.182892,301.162415 393.993958,300.965149 
	C402.397461,300.777039 409.830505,295.337555 411.507202,286.016113 
	C412.797302,278.844025 412.883698,271.058868 411.545410,263.913422 
	C409.962677,255.462967 404.371735,249.419983 394.263367,248.031830 
z"/>
<path fill="#040300" opacity="1.000000" stroke="none" 
	d="
M316.066681,280.002319 
	C315.779205,273.030396 316.130768,266.449463 315.055298,260.110687 
	C313.419922,250.471939 306.203613,246.723190 296.866943,249.778061 
	C289.291626,252.256653 284.437256,258.715759 284.147552,267.655365 
	C283.775360,279.141144 283.849030,290.640961 283.666351,302.133698 
	C283.629456,304.454956 283.529053,306.817108 283.068207,309.081055 
	C282.088959,313.891968 278.269989,317.040253 273.492310,316.968872 
	C268.627625,316.896210 265.236786,314.478363 263.923157,309.735382 
	C263.310242,307.522461 263.039551,305.147858 263.031189,302.845001 
	C262.962646,284.017456 262.991241,265.189514 262.996643,246.361710 
	C262.996918,245.362900 263.001678,244.359314 263.092560,243.366028 
	C263.698944,236.737808 266.935272,233.133530 272.364441,233.002853 
	C277.936462,232.868729 281.442719,236.532486 282.239594,243.309006 
	C282.314026,243.942017 282.444916,244.568375 282.674347,245.948212 
	C284.080170,244.654251 285.125031,243.781357 286.068726,242.810165 
	C294.908356,233.712814 305.631958,231.247101 317.677277,234.150833 
	C327.922821,236.620712 335.634277,245.394867 336.004120,255.928513 
	C336.576691,272.236908 336.649292,288.571411 336.530487,304.891876 
	C336.472107,312.906219 332.405670,317.163971 326.226471,317.000244 
	C320.272888,316.842499 316.408386,312.509918 316.166229,304.991791 
	C315.903473,296.835846 316.081085,288.665710 316.066681,280.002319 
z"/>
<path fill="#040301" opacity="1.000000" stroke="none" 
	d="
M472.119568,228.842560 
	C472.194824,230.777130 472.270172,232.229691 472.366974,234.095627 
	C475.274139,234.095627 477.913483,233.944366 480.529266,234.128082 
	C485.508392,234.477753 488.594757,237.173569 488.712067,241.213120 
	C488.853119,246.070496 485.669128,247.944489 481.524292,248.552185 
	C478.598846,248.981079 475.611450,248.987732 472.358459,249.202240 
	C472.358459,264.267822 472.160217,279.202545 472.468628,294.126801 
	C472.573120,299.184509 475.532410,301.062775 480.607056,300.501862 
	C482.750000,300.265015 484.858917,299.730225 486.988495,299.360840 
	C490.600983,298.734283 493.780823,300.193878 494.598145,303.434998 
	C495.218597,305.895386 494.268066,309.177368 492.993744,311.542664 
	C492.124420,313.156219 489.553406,314.619263 487.636688,314.766998 
	C480.089966,315.348694 472.391113,316.283142 464.958008,315.374451 
	C457.122345,314.416626 452.778564,308.478027 452.121002,299.758881 
	C451.508545,291.638062 451.475647,283.463684 451.435211,275.311615 
	C451.345428,257.208008 451.397064,239.103622 451.428680,220.999634 
	C451.433044,218.505997 451.509827,215.996033 451.800507,213.522690 
	C452.454773,207.956085 456.538513,204.149155 461.667877,204.130661 
	C466.612762,204.112808 471.302490,208.109390 471.776794,213.388718 
	C472.222443,218.349548 472.030853,223.367645 472.119568,228.842560 
z"/>
<path fill="#FFC921" opacity="1.000000" stroke="none" 
	d="
M188.077301,219.808777 
	C211.291275,223.595016 226.556442,245.006424 222.889893,268.102081 
	C219.428955,289.902618 198.071823,305.158112 175.567291,301.904816 
	C152.891113,298.626709 137.516617,277.155670 141.092545,253.759583 
	C144.429184,231.929138 165.396713,216.614685 188.077301,219.808777 
M184.890808,274.487823 
	C182.897766,275.311035 180.878189,276.076050 178.917511,276.970245 
	C175.494324,278.531433 172.873550,280.678101 174.006546,285.005951 
	C174.967148,288.675293 178.766464,290.993866 183.144196,289.793518 
	C187.254562,288.666473 191.440247,287.118378 195.007416,284.839294 
	C204.942429,278.491821 210.026871,269.194122 210.151611,257.300201 
	C210.192520,253.400208 208.198181,250.916107 204.564865,250.120270 
	C200.867264,249.310364 198.618256,251.626053 197.218674,254.728287 
	C196.616425,256.063171 196.314896,257.582947 196.134079,259.050385 
	C195.280548,265.977051 192.141830,271.256317 184.890808,274.487823 
z"/>
<path fill="#FFCA23" opacity="1.000000" stroke="none" 
	d="
M59.070053,416.954285 
	C45.854664,415.668091 36.093891,407.799561 33.154598,396.411316 
	C30.249399,385.155182 34.530739,373.051575 44.142151,366.418182 
	C53.926346,359.665497 64.273933,359.925446 74.326653,365.559998 
	C84.735458,371.394135 89.255890,381.880920 87.018608,394.642242 
	C85.031876,405.974457 77.582291,412.631012 66.892967,415.875275 
	C64.538185,416.589996 61.974033,416.614899 59.070053,416.954285 
M66.145142,387.815857 
	C65.427521,391.974792 63.852711,395.354797 59.291046,396.656158 
	C54.790958,397.939941 53.275665,401.382874 54.423538,405.603210 
	C55.667957,410.178497 59.542850,410.319397 63.348839,409.619568 
	C71.780075,408.069214 78.624672,400.414459 79.484680,391.560699 
	C79.834869,387.955475 79.494514,384.295563 75.360786,382.936462 
	C71.292404,381.598877 68.237068,383.222992 66.145142,387.815857 
z"/>
<path fill="#FFCA24" opacity="1.000000" stroke="none" 
	d="
M106.835510,115.082550 
	C123.103020,117.948814 130.082474,132.035904 121.873360,144.594666 
	C117.318916,151.562317 108.818985,154.580597 100.378456,152.227402 
	C92.586937,150.055130 87.203491,143.075073 87.004860,134.887558 
	C86.798347,126.374779 92.082611,118.662544 100.044655,116.152939 
	C102.079491,115.511574 104.287621,115.420029 106.835510,115.082550 
M116.269875,141.628326 
	C117.058281,139.989731 118.118797,138.423950 118.580719,136.697968 
	C119.677605,132.599472 117.986336,129.388199 114.399864,127.514359 
	C110.731720,125.597839 107.975555,127.837357 105.792511,130.519547 
	C104.237701,132.429855 102.341789,134.563599 101.985321,136.817062 
	C101.571648,139.432236 101.946732,142.739075 103.302711,144.924728 
	C105.021713,147.695541 108.341843,147.998688 111.265106,146.031235 
	C112.900368,144.930649 114.323196,143.514450 116.269875,141.628326 
z"/>
<path fill="#FFCB26" opacity="1.000000" stroke="none" 
	d="
M336.231995,179.166565 
	C342.021393,176.062042 347.764465,177.378708 349.745911,181.936783 
	C351.957123,187.023453 349.940186,192.287094 344.870392,194.341461 
	C340.813202,195.985474 337.334900,194.898895 334.633667,191.562500 
	C331.773651,188.029968 332.264282,184.086990 336.231995,179.166565 
z"/>
<path fill="#FFCA25" opacity="1.000000" stroke="none" 
	d="
M292.877289,347.903076 
	C297.983276,348.592407 300.900665,351.229950 301.461304,355.958405 
	C301.954895,360.121399 299.648743,362.977448 296.138519,364.750366 
	C292.571228,366.552032 288.759064,365.760864 286.654907,362.802307 
	C284.947266,360.401337 283.945831,356.685944 284.349670,353.793457 
	C284.899597,349.854492 288.296906,347.868317 292.877289,347.903076 
z"/>
<path fill="#FFCA24" opacity="1.000000" stroke="none" 
	d="
M243.761871,121.662560 
	C244.151123,128.473160 240.452759,133.242661 235.345108,133.059937 
	C230.603302,132.890305 226.462082,128.041626 227.045395,123.219170 
	C227.548904,119.056526 230.313965,116.696266 234.088638,115.870491 
	C238.643311,114.874107 241.586288,117.468697 243.761871,121.662560 
z"/>
<path fill="#FBC61E" opacity="1.000000" stroke="none" 
	d="
M41.461014,267.144653 
	C52.540646,267.323456 63.240944,266.913788 73.764565,268.087891 
	C83.341721,269.156311 87.431854,274.525909 87.384995,282.904175 
	C87.338654,291.190948 83.099274,296.991608 73.801147,297.890442 
	C62.957111,298.938782 51.934048,298.135284 41.004704,298.135284 
	C41.004704,288.260284 41.004704,277.753265 41.461014,267.144653 
z"/>
<path fill="#FAC51E" opacity="1.000000" stroke="none" 
	d="
M59.945854,251.005356 
	C53.307991,251.006241 47.161160,251.006241 40.646088,251.006241 
	C40.646088,241.413864 40.646088,232.041656 40.646088,221.434280 
	C51.553688,222.091125 62.465870,222.223160 73.222466,223.584549 
	C80.146027,224.460800 82.983002,229.098999 82.927246,236.007019 
	C82.873306,242.689758 78.963036,248.380875 72.787842,249.748123 
	C68.774857,250.636627 64.560829,250.617142 59.945854,251.005356 
z"/>
<path fill="#FCC71F" opacity="1.000000" stroke="none" 
	d="
M394.683777,248.048157 
	C404.371735,249.419983 409.962677,255.462967 411.545410,263.913422 
	C412.883698,271.058868 412.797302,278.844025 411.507202,286.016113 
	C409.830505,295.337555 402.397461,300.777039 393.993958,300.965149 
	C385.182892,301.162415 378.121155,296.008667 375.328186,286.663361 
	C372.693695,277.848236 372.704834,268.869507 376.221405,260.265717 
	C379.455505,252.353073 385.223175,247.644470 394.683777,248.048157 
z"/>
<path fill="#FFFEFB" opacity="1.000000" stroke="none" 
	d="
M185.225555,274.318481 
	C192.141830,271.256317 195.280548,265.977051 196.134079,259.050385 
	C196.314896,257.582947 196.616425,256.063171 197.218674,254.728287 
	C198.618256,251.626053 200.867264,249.310364 204.564865,250.120270 
	C208.198181,250.916107 210.192520,253.400208 210.151611,257.300201 
	C210.026871,269.194122 204.942429,278.491821 195.007416,284.839294 
	C191.440247,287.118378 187.254562,288.666473 183.144196,289.793518 
	C178.766464,290.993866 174.967148,288.675293 174.006546,285.005951 
	C172.873550,280.678101 175.494324,278.531433 178.917511,276.970245 
	C180.878189,276.076050 182.897766,275.311035 185.225555,274.318481 
z"/>
<path fill="#FFFDF9" opacity="1.000000" stroke="none" 
	d="
M66.280396,387.460938 
	C68.237068,383.222992 71.292404,381.598877 75.360786,382.936462 
	C79.494514,384.295563 79.834869,387.955475 79.484680,391.560699 
	C78.624672,400.414459 71.780075,408.069214 63.348839,409.619568 
	C59.542850,410.319397 55.667957,410.178497 54.423538,405.603210 
	C53.275665,401.382874 54.790958,397.939941 59.291046,396.656158 
	C63.852711,395.354797 65.427521,391.974792 66.280396,387.460938 
z"/>
<path fill="#FFFEF9" opacity="1.000000" stroke="none" 
	d="
M116.055801,141.934387 
	C114.323196,143.514450 112.900368,144.930649 111.265106,146.031235 
	C108.341843,147.998688 105.021713,147.695541 103.302711,144.924728 
	C101.946732,142.739075 101.571648,139.432236 101.985321,136.817062 
	C102.341789,134.563599 104.237701,132.429855 105.792511,130.519547 
	C107.975555,127.837357 110.731720,125.597839 114.399864,127.514359 
	C117.986336,129.388199 119.677605,132.599472 118.580719,136.697968 
	C118.118797,138.423950 117.058281,139.989731 116.055801,141.934387 
z"/>
</svg>